SplineFontDB: 3.2
FontName: hiContr_Lite_Book_Italic
FullName: hiContr Lite Book Italic
FamilyName: hiContr Lite
Weight: Book
Copyright: Copyright (c) 2022, RandomMaerks (aka Bao Nguyen) (rmforbusiness@gmail.com)
UComments: "2022-1-20: Created with FontForge (http://fontforge.org)"
Version: 1.0
ItalicAngle: 0
UnderlinePosition: -100
UnderlineWidth: 50
Ascent: 800
Descent: 200
InvalidEm: 0
LayerCount: 2
Layer: 0 0 "Back" 1
Layer: 1 0 "Fore" 0
XUID: [1021 301 932173752 8938]
OS2Version: 0
OS2_WeightWidthSlopeOnly: 0
OS2_UseTypoMetrics: 1
CreationTime: 1642688069
ModificationTime: 1642689010
OS2TypoAscent: 0
OS2TypoAOffset: 1
OS2TypoDescent: 0
OS2TypoDOffset: 1
OS2TypoLinegap: 0
OS2WinAscent: 0
OS2WinAOffset: 1
OS2WinDescent: 0
OS2WinDOffset: 1
HheadAscent: 0
HheadAOffset: 1
HheadDescent: 0
HheadDOffset: 1
OS2Vendor: 'PfEd'
MarkAttachClasses: 1
DEI: 91125
Encoding: ISO8859-1
UnicodeInterp: none
NameList: AGL For New Fonts
DisplaySize: -48
AntiAlias: 1
FitToEm: 0
WinInfo: 0 38 14
BeginPrivate: 0
EndPrivate
BeginChars: 256 58

StartChar: n
Encoding: 110 110 0
Width: 419
Flags: HW
LayerCount: 2
Fore
SplineSet
196.474609375 500 m 1
 231.974609375 500 l 1
 234.416992188 397.778320312 l 1
 268.16796875 461.139648438 314.923828125 520.5 381.467773438 520.5 c 0
 458.112304688 520.5 479.6953125 451.372070312 449.852539062 340 c 2
 358.75 0 l 1
 278.25 0 l 1
 373.372070312 355 l 2
 394.817382812 435.036132812 389.515625 479.5 346.981445312 479.5 c 0
 298.547851562 479.5 256.260742188 422.6953125 234.772460938 342.5 c 2
 143 0 l 1
 62.5 0 l 1
 196.474609375 500 l 1
EndSplineSet
EndChar

StartChar: t
Encoding: 116 116 1
Width: 362
Flags: HW
LayerCount: 2
Fore
SplineSet
368.666992188 650 m 1
 399.166992188 650 l 1
 358.974609375 500 l 1
 453.474609375 500 l 1
 443.29296875 462 l 1
 348.79296875 462 l 1
 225 0 l 1
 144.5 0 l 1
 268.29296875 462 l 1
 166.29296875 462 l 1
 171.115234375 480 l 1
 368.666992188 650 l 1
EndSplineSet
EndChar

StartChar: h
Encoding: 104 104 2
Width: 428
Flags: HW
LayerCount: 2
Fore
SplineSet
250.064453125 700 m 1
 318.064453125 700 l 1
 236.188476562 394.435546875 l 1
 272.979492188 467.963867188 324.780273438 520.5 381.467773438 520.5 c 0
 462.543945312 520.5 486.4453125 451.372070312 456.602539062 340 c 2
 365.5 0 l 1
 285 0 l 1
 382.131835938 362.5 l 2
 402.715820312 439.321289062 394.990234375 482 347.651367188 482 c 0
 299.217773438 482 256.653320312 424.158203125 234.772460938 342.5 c 2
 143 0 l 1
 62.5 0 l 1
 250.064453125 700 l 1
EndSplineSet
EndChar

StartChar: u
Encoding: 117 117 3
Width: 428
Flags: HW
LayerCount: 2
Fore
SplineSet
365.5 0 m 1
 330 0 l 1
 329.327148438 110.529296875 l 1
 294.530273438 44.294921875 247.125976562 -18 181.176757812 -18 c 0
 100.100585938 -18 76.19921875 51.1279296875 106.041992188 162.5 c 2
 196.474609375 500 l 1
 276.974609375 500 l 1
 182.522460938 147.5 l 2
 161.077148438 67.4638671875 168.32421875 23 215.663085938 23 c 0
 264.096679688 23 307.216796875 82.9150390625 329.881835938 167.5 c 2
 418.974609375 500 l 1
 499.474609375 500 l 1
 365.5 0 l 1
EndSplineSet
EndChar

StartChar: m
Encoding: 109 109 4
Width: 658
Flags: HW
LayerCount: 2
Fore
SplineSet
196.474609375 500 m 1
 231.974609375 500 l 1
 234.416992188 397.778320312 l 1
 268.16796875 461.139648438 314.923828125 520.5 381.467773438 520.5 c 0
 450.198242188 520.5 471.204101562 470.053710938 476.857421875 416.860351562 c 1
 505.6875 477.737304688 553.768554688 520.5 611.467773438 520.5 c 0
 692.543945312 520.5 716.4453125 451.372070312 686.602539062 340 c 2
 595.5 0 l 1
 522.5 0 l 1
 619.631835938 362.5 l 2
 639.78515625 437.713867188 629.659179688 479.5 576.981445312 479.5 c 0
 528.547851562 479.5 487.66796875 427.9453125 464.102539062 340 c 2
 373 0 l 1
 292.5 0 l 1
 389.631835938 362.5 l 2
 409.78515625 437.713867188 399.659179688 479.5 346.981445312 479.5 c 0
 298.547851562 479.5 256.260742188 422.6953125 234.772460938 342.5 c 2
 143 0 l 1
 62.5 0 l 1
 196.474609375 500 l 1
EndSplineSet
EndChar

StartChar: r
Encoding: 114 114 5
Width: 408
Flags: HW
LayerCount: 2
Fore
SplineSet
196.474609375 500 m 1
 224.474609375 500 l 1
 236.426757812 405.278320312 l 1
 271.280273438 468.639648438 320.061523438 528 390.977539062 528 c 0
 467.129882812 528 487.684570312 456 456.602539062 340 c 1
 370.744140625 320 l 1
 399.509765625 427.357421875 394.168945312 487 341.491210938 487 c 0
 297.868164062 487 258.270507812 430.1953125 236.782226562 350 c 2
 143 0 l 1
 62.5 0 l 1
 196.474609375 500 l 1
EndSplineSet
EndChar

StartChar: o
Encoding: 111 111 6
Width: 414
Flags: HW
LayerCount: 2
Fore
SplineSet
347.887695312 523 m 0
 418.946289062 523 477.524414062 461 443.762695312 335 c 2
 400.890625 175 l 2
 367.129882812 49 275.326171875 -13 204.266601562 -13 c 0
 132.478515625 -13 73.1298828125 49 106.890625 175 c 2
 149.762695312 335 l 2
 183.524414062 461 276.099609375 523 347.887695312 523 c 0
338.241210938 487 m 0
 290.368164062 487 260.2734375 447 240.98046875 375 c 2
 176.672851562 135 l 2
 157.380859375 63 166.040039062 23 213.913085938 23 c 0
 260.717773438 23 290.380859375 63 309.672851562 135 c 2
 373.98046875 375 l 2
 393.2734375 447 385.045898438 487 338.241210938 487 c 0
EndSplineSet
EndChar

StartChar: e
Encoding: 101 101 7
Width: 414
Flags: HW
LayerCount: 2
Fore
SplineSet
211.196289062 263.840820312 m 1
 349.07421875 282.045898438 l 1
 376.392578125 384 l 2
 393.048828125 446.161132812 385.375976562 487 337.491210938 487 c 0
 290.15234375 487 260.2734375 447 240.98046875 375 c 2
 211.196289062 263.840820312 l 1
204.633789062 239.350585938 m 1
 176.672851562 135 l 2
 157.380859375 63 165.82421875 23 213.163085938 23 c 0
 260.501953125 23 296.123046875 84.4287109375 325.75 195 c 1
 400.890625 175 l 1
 367.129882812 49 274.940429688 -13 203.516601562 -13 c 0
 132.092773438 -13 73.1298828125 49 106.890625 175 c 2
 149.762695312 335 l 2
 183.524414062 461 275.713867188 523 347.137695312 523 c 0
 418.561523438 523 477.524414062 461 443.762695312 335 c 2
 426.346679688 270 l 1
 204.633789062 239.350585938 l 1
EndSplineSet
EndChar

StartChar: c
Encoding: 99 99 8
Width: 414
Flags: HW
LayerCount: 2
Fore
SplineSet
443.762695312 335 m 1
 357.904296875 315 l 1
 387.53125 425.571289062 384.830078125 487 337.491210938 487 c 0
 295.491210938 487 267.7734375 447 248.48046875 375 c 2
 184.172851562 135 l 2
 164.880859375 63 171.163085938 23 213.163085938 23 c 0
 260.501953125 23 296.123046875 84.4287109375 325.75 195 c 1
 400.890625 175 l 1
 367.129882812 49 274.940429688 -13 203.516601562 -13 c 0
 132.092773438 -13 73.1298828125 49 106.890625 175 c 2
 149.762695312 335 l 2
 183.524414062 461 275.713867188 523 347.137695312 523 c 0
 418.561523438 523 477.524414062 461 443.762695312 335 c 1
EndSplineSet
EndChar

StartChar: l
Encoding: 108 108 9
Width: 229
Flags: HW
LayerCount: 2
Fore
SplineSet
150.5 0 m 2
 93.822265625 0 75.6298828125 49 88.22265625 96 c 2
 236.666992188 650 l 1
 330.564453125 700 l 1
 164.034179688 78.5 l 2
 157.498046875 54.1083984375 166.081054688 45.5 183.19140625 45.5 c 2
 188.69140625 45.5 l 1
 176.5 0 l 1
 150.5 0 l 2
EndSplineSet
EndChar

StartChar: b
Encoding: 98 98 10
Width: 424
Flags: HW
LayerCount: 2
Fore
SplineSet
373.477539062 528 m 0
 445.599609375 528 493.684570312 456 462.602539062 340 c 2
 419.73046875 180 l 2
 388.6484375 64 301.978515625 -8 229.856445312 -8 c 0
 177.9609375 -8 149.547851562 49.2958984375 159.744140625 123.447265625 c 1
 90.5 0 l 1
 62.5 0 l 1
 250.064453125 700 l 1
 310.564453125 700 l 1
 234.127929688 414.734375 l 1
 270.798828125 479.25390625 325.140625 528 373.477539062 528 c 0
228.744140625 320 m 2
 196.58984375 200 l 2
 167.823242188 92.642578125 173.1640625 33 225.842773438 33 c 0
 283.859375 33 319.49609375 78.357421875 341.372070312 160 c 2
 394.961914062 360 l 2
 416.837890625 441.642578125 405.5078125 487 347.491210938 487 c 0
 294.813476562 487 257.509765625 427.357421875 228.744140625 320 c 2
EndSplineSet
EndChar

StartChar: d
Encoding: 100 100 11
Width: 424
Flags: HW
LayerCount: 2
Fore
SplineSet
325.977539062 528 m 0
 257.732421875 528 174.684570312 456 143.602539062 340 c 2
 100.73046875 180 l 2
 69.6484375 64 114.111328125 -8 182.356445312 -8 c 0
 237.947265625 -8 300.181640625 49.2958984375 330.41015625 123.447265625 c 1
 333.5 0 l 1
 361.5 0 l 1
 549.064453125 700 l 1
 488.564453125 700 l 1
 412.127929688 414.734375 l 1
 408.69921875 479.25390625 377.639648438 528 325.977539062 528 c 0
366.744140625 320 m 2
 334.58984375 200 l 2
 305.823242188 92.642578125 268.520507812 33 215.842773438 33 c 0
 163.1640625 33 153.99609375 78.357421875 175.872070312 160 c 2
 229.461914062 360 l 2
 251.337890625 441.642578125 284.813476562 487 337.491210938 487 c 0
 390.168945312 487 395.509765625 427.357421875 366.744140625 320 c 2
EndSplineSet
EndChar

StartChar: p
Encoding: 112 112 12
Width: 424
Flags: HW
LayerCount: 2
Fore
SplineSet
231.997070312 -28 m 0
 300.2421875 -28 383.290039062 44 414.372070312 160 c 2
 457.244140625 320 l 2
 488.326171875 436 443.86328125 508 375.618164062 508 c 0
 320.02734375 508 257.79296875 450.704101562 227.564453125 376.552734375 c 1
 224.474609375 500 l 1
 196.474609375 500 l 1
 22.3076171875 -150 l 1
 82.8076171875 -150 l 1
 145.846679688 85.265625 l 1
 149.275390625 20.74609375 180.334960938 -28 231.997070312 -28 c 0
191.23046875 180 m 2
 223.384765625 300 l 2
 252.151367188 407.357421875 289.454101562 467 342.131835938 467 c 0
 394.810546875 467 403.978515625 421.642578125 382.102539062 340 c 2
 328.512695312 140 l 2
 306.63671875 58.357421875 273.161132812 13 220.483398438 13 c 0
 167.805664062 13 162.46484375 72.642578125 191.23046875 180 c 2
EndSplineSet
EndChar

StartChar: q
Encoding: 113 113 13
Width: 424
Flags: HW
LayerCount: 2
Fore
SplineSet
176.997070312 -28 m 0
 108.752929688 -28 65.0595703125 46.8720703125 97.3818359375 167.5 c 2
 140.252929688 327.5 l 2
 170.095703125 438.872070312 252.373046875 508 320.618164062 508 c 0
 376.208984375 508 407.73828125 450.704101562 398.23046875 376.552734375 c 1
 467.474609375 500 l 1
 495.474609375 500 l 1
 321.307617188 -150 l 1
 260.807617188 -150 l 1
 323.846679688 85.265625 l 1
 285.842773438 20.74609375 228.66015625 -28 176.997070312 -28 c 0
329.23046875 180 m 2
 361.384765625 300 l 2
 390.151367188 407.357421875 384.810546875 467 332.131835938 467 c 0
 279.454101562 467 245.978515625 421.642578125 224.102539062 340 c 2
 170.512695312 140 l 2
 148.63671875 58.357421875 157.805664062 13 210.483398438 13 c 0
 263.161132812 13 300.46484375 72.642578125 329.23046875 180 c 2
EndSplineSet
EndChar

StartChar: i
Encoding: 105 105 14
Width: 198
Flags: HW
LayerCount: 2
Fore
SplineSet
289.771484375 575.75 m 1
 216.771484375 575.75 l 1
 238.006835938 655 l 1
 311.006835938 655 l 1
 289.771484375 575.75 l 1
135.5 0 m 1
 62.5 0 l 1
 196.474609375 500 l 1
 269.474609375 500 l 1
 135.5 0 l 1
EndSplineSet
EndChar

StartChar: a
Encoding: 97 97 15
Width: 434
Flags: HW
LayerCount: 2
Fore
SplineSet
335.48828125 111.01171875 m 1
 310.87890625 52.677734375 257.4765625 -7.8203125 190.638671875 -7.8203125 c 0
 117.344726562 -7.8203125 74.822265625 45.98828125 99.208984375 137 c 0
 129.275390625 249.208984375 252.915039062 292.649414062 376.915039062 292.649414062 c 1
 383.439453125 317 l 2
 411.775390625 422.75 404.034179688 481.5 346.017578125 481.5 c 0
 288.000976562 481.5 248.775390625 422.75 220.439453125 317 c 1
 152.798828125 337 l 1
 187.271484375 465.654296875 280.595703125 517.5 355.6640625 517.5 c 0
 430.731445312 517.5 495.2421875 461.813476562 461.798828125 337 c 2
 371.5 0 l 1
 337.5 0 l 1
 335.48828125 111.01171875 l 1
369.482421875 264.909179688 m 1
 250.685546875 264.909179688 187.28125 193.25 173.938476562 143.454101562 c 0
 164.133789062 106.861328125 168.909179688 40 227.717773438 40 c 0
 285.735351562 40 324.2421875 96.0712890625 351.286132812 197 c 2
 369.482421875 264.909179688 l 1
EndSplineSet
EndChar

StartChar: f
Encoding: 102 102 17
Width: 362
Flags: HW
LayerCount: 2
Fore
SplineSet
443.513671875 673.400390625 m 0
 394.645507812 673.400390625 360.201171875 588.546875 336.474609375 500 c 1
 453.474609375 500 l 1
 443.29296875 462 l 1
 326.29296875 462 l 1
 202.5 0 l 1
 122 0 l 1
 245.79296875 462 l 1
 166.29296875 462 l 1
 176.474609375 500 l 1
 255.974609375 500 l 1
 298.657226562 659.291992188 374.881835938 720 439.423828125 720 c 0
 467.423828125 720 480.159179688 713.916992188 492.208007812 708 c 1
 481.221679688 667 l 1
 481.221679688 667 465.017578125 673.400390625 443.513671875 673.400390625 c 0
EndSplineSet
EndChar

StartChar: g
Encoding: 103 103 18
Width: 424
Flags: HW
LayerCount: 2
Fore
SplineSet
342.092773438 228 m 2
 361.384765625 300 l 2
 390.58203125 408.963867188 385.48046875 469.5 332.801757812 469.5 c 0
 280.124023438 469.5 247.366210938 426.821289062 226.782226562 350 c 2
 180.6953125 178 l 2
 160.110351562 101.178710938 169.997070312 58.5 222.674804688 58.5 c 0
 275.352539062 58.5 312.895507812 119.036132812 342.092773438 228 c 2
189.859375 20 m 0
 121.614257812 20 77.1513671875 92 108.233398438 208 c 2
 138.244140625 320 l 2
 169.326171875 436 252.373046875 508 320.618164062 508 c 0
 386.920898438 508 410.41796875 460.704101562 398.23046875 376.552734375 c 1
 477.474609375 500 l 1
 495.474609375 500 l 1
 355.60546875 -22 l 2
 320.235351562 -154 228.477539062 -200 153.41015625 -200 c 0
 81.986328125 -200 18.7353515625 -154 54.10546875 -22 c 1
 139.963867188 -2 l 1
 109.323242188 -116.352539062 115.717773438 -164 163.056640625 -164 c 0
 215.734375 -164 245.094726562 -134 264.38671875 -62 c 2
 308.669921875 103.265625 l 1
 279.498046875 47 242.26953125 20 189.859375 20 c 0
EndSplineSet
EndChar

StartChar: j
Encoding: 106 106 19
Width: 198
Flags: HW
LayerCount: 2
Fore
SplineSet
289.771484375 575.75 m 1
 216.771484375 575.75 l 1
 238.006835938 655 l 1
 311.006835938 655 l 1
 289.771484375 575.75 l 1
51.7822265625 -40 m 2
 196.474609375 500 l 1
 269.474609375 500 l 1
 140.859375 20 l 2
 98.1767578125 -139.291992188 18.33984375 -200 -50.08984375 -200 c 0
 -78.08984375 -200 -90.8251953125 -193.916992188 -102.874023438 -188 c 1
 -94.568359375 -157 l 1
 -94.568359375 -157 -78.36328125 -163.400390625 -56.859375 -163.400390625 c 0
 4.109375 -163.400390625 34.8974609375 -103.014648438 51.7822265625 -40 c 2
EndSplineSet
EndChar

StartChar: k
Encoding: 107 107 20
Width: 412
Flags: HW
LayerCount: 2
Fore
SplineSet
143 0 m 1
 62.5 0 l 1
 250.064453125 700 l 1
 320.564453125 700 l 1
 192.188476562 220.895507812 l 1
 466.724609375 500 l 1
 503.474609375 500 l 1
 298.826171875 282.509765625 l 1
 369.5 0 l 1
 289 0 l 1
 231.75 231.387695312 l 1
 194.549804688 192.387695312 l 1
 143 0 l 1
EndSplineSet
EndChar

StartChar: v
Encoding: 118 118 21
Width: 388
Flags: HW
LayerCount: 2
Fore
SplineSet
237.038085938 30 m 1
 449.474609375 500 l 1
 479.474609375 500 l 1
 253 0 l 1
 162.5 0 l 1
 176.474609375 500 l 1
 256.974609375 500 l 1
 237.038085938 30 l 1
EndSplineSet
EndChar

StartChar: w
Encoding: 119 119 22
Width: 648
Flags: HW
LayerCount: 2
Fore
SplineSet
229.538085938 30 m 1
 423.974609375 500 l 1
 511.974609375 500 l 1
 489.538085938 30 l 1
 711.474609375 500 l 1
 739.474609375 500 l 1
 505.5 0 l 1
 420 0 l 1
 436.541992188 457.333007812 l 1
 245.5 0 l 1
 160 0 l 1
 176.474609375 500 l 1
 264.474609375 500 l 1
 229.538085938 30 l 1
EndSplineSet
EndChar

StartChar: y
Encoding: 121 121 23
Width: 388
Flags: HW
LayerCount: 2
Fore
SplineSet
259.615234375 90 m 1
 448.474609375 500 l 1
 479.474609375 500 l 1
 168.877929688 -160 l 1
 91.3779296875 -160 l 1
 201.077148438 60 l 1
 181.077148438 60 l 1
 176.474609375 500 l 1
 256.974609375 500 l 1
 259.615234375 90 l 1
EndSplineSet
EndChar

StartChar: x
Encoding: 120 120 24
Width: 406
Flags: HW
LayerCount: 2
Fore
SplineSet
363.5 0 m 1
 283 0 l 1
 243.733398438 208 l 1
 85 0 l 1
 42.5 0 l 1
 235.47265625 240.614257812 l 1
 176.474609375 500 l 1
 256.974609375 500 l 1
 295.008789062 293 l 1
 459.474609375 500 l 1
 497.474609375 500 l 1
 303.270507812 260.385742188 l 1
 363.5 0 l 1
EndSplineSet
EndChar

StartChar: z
Encoding: 122 122 25
Width: 408
Flags: HW
LayerCount: 2
Fore
SplineSet
167.583984375 429.5 m 1
 186.474609375 500 l 1
 489.474609375 500 l 1
 470.047851562 427.5 l 1
 115.340820312 70.5 l 1
 374.390625 70.5 l 1
 355.5 0 l 1
 52.5 0 l 1
 74.0703125 80.5 l 1
 426.494140625 429.5 l 1
 167.583984375 429.5 l 1
EndSplineSet
EndChar

StartChar: s
Encoding: 115 115 26
Width: 414
Flags: HW
LayerCount: 2
Fore
SplineSet
235.356445312 382 m 0
 223.541992188 337.907226562 222.047851562 295.904296875 275.9921875 278 c 0
 323.477539062 254 428.31640625 249.362304688 396.869140625 132 c 0
 371.146484375 36 277.780273438 -16 202.712890625 -16 c 0
 127.64453125 -16 64.8251953125 46 98.5869140625 172 c 1
 191.946289062 192 l 1
 162.318359375 81.4287109375 165.01953125 20 212.359375 20 c 0
 265.037109375 20 304.25 86.76953125 316.369140625 132 c 0
 328.584960938 177.588867188 321.5859375 219.752929688 286.842773438 231 c 0
 234.41015625 258.495117188 122.5390625 261.388671875 152.176757812 372 c 0
 177.900390625 468 271.265625 520 346.333984375 520 c 0
 421.401367188 520 486.900390625 468 450.458984375 332 c 1
 357.100585938 312 l 1
 386.727539062 422.571289062 384.026367188 484 336.6875 484 c 0
 284.009765625 484 250.919921875 440.083007812 235.356445312 382 c 0
EndSplineSet
EndChar

StartChar: H
Encoding: 72 72 27
Width: 498
Flags: HW
LayerCount: 2
Fore
SplineSet
143 0 m 1
 62.5 0 l 1
 250.064453125 700 l 1
 330.564453125 700 l 1
 249.912109375 399 l 1
 461.912109375 399 l 1
 542.564453125 700 l 1
 623.064453125 700 l 1
 435.5 0 l 1
 355 0 l 1
 452.265625 363 l 1
 240.265625 363 l 1
 143 0 l 1
EndSplineSet
EndChar

StartChar: N
Encoding: 78 78 28
Width: 498
Flags: HW
LayerCount: 2
Fore
SplineSet
143 0 m 1
 62.5 0 l 1
 250.064453125 700 l 1
 370.564453125 700 l 1
 370.18359375 56.6669921875 l 1
 542.564453125 700 l 1
 623.064453125 700 l 1
 435.5 0 l 1
 325 0 l 1
 321.6328125 666.666992188 l 1
 143 0 l 1
EndSplineSet
EndChar

StartChar: M
Encoding: 77 77 29
Width: 662
Flags: HW
LayerCount: 2
Fore
SplineSet
338.064453125 26.36328125 m 1
 656.564453125 700 l 1
 787.064453125 700 l 1
 599.5 0 l 1
 519 0 l 1
 700.3125 676.666992188 l 1
 372 0 l 1
 290 0 l 1
 324.3125 676.666992188 l 1
 143 0 l 1
 62.5 0 l 1
 250.064453125 700 l 1
 380.564453125 700 l 1
 338.064453125 26.36328125 l 1
EndSplineSet
EndChar

StartChar: U
Encoding: 85 85 30
Width: 484
Flags: HW
LayerCount: 2
Fore
SplineSet
482.41015625 190 m 2
 440.610351562 34 322.98828125 -18 237.176757812 -18 c 0
 151.365234375 -18 61.6103515625 34 103.41015625 190 c 2
 240.064453125 700 l 1
 320.564453125 700 l 1
 320.564453125 700 224.102539062 340 175.872070312 160 c 0
 151.220703125 68 191.348632812 36 251.646484375 36 c 0
 311.944335938 36 374.579101562 88 393.872070312 160 c 0
 538.564453125 700 l 1
 619.064453125 700 l 1
 482.41015625 190 l 2
EndSplineSet
EndChar

StartChar: O
Encoding: 79 79 31
Width: 484
Flags: HW
LayerCount: 2
Fore
SplineSet
434.387695312 718 m 0
 520.19921875 718 609.954101562 666 568.154296875 510 c 2
 482.41015625 190 l 2
 440.610351562 34 322.98828125 -18 237.176757812 -18 c 0
 151.365234375 -18 61.6103515625 34 103.41015625 190 c 2
 189.154296875 510 l 2
 230.954101562 666 348.576171875 718 434.387695312 718 c 0
419.91796875 664 m 0
 359.620117188 664 302.34375 632 277.692382812 540 c 2
 175.872070312 160 l 2
 151.220703125 68 191.348632812 36 251.646484375 36 c 0
 311.944335938 36 374.579101562 88 393.872070312 160 c 2
 495.692382812 540 l 2
 520.34375 632 480.215820312 664 419.91796875 664 c 0
EndSplineSet
EndChar

StartChar: C
Encoding: 67 67 32
Width: 484
Flags: HW
LayerCount: 2
Fore
SplineSet
482.41015625 190 m 1
 440.610351562 34 322.98828125 -18 237.176757812 -18 c 0
 151.365234375 -18 61.6103515625 34 103.41015625 190 c 2
 189.154296875 510 l 2
 230.954101562 666 348.576171875 718 434.387695312 718 c 0
 520.19921875 718 609.954101562 666 568.154296875 510 c 1
 482.294921875 490 l 1
 516.88671875 619.096679688 480.215820312 664 419.91796875 664 c 0
 359.620117188 664 302.34375 632 277.692382812 540 c 2
 175.872070312 160 l 2
 151.220703125 68 191.348632812 36 251.646484375 36 c 0
 311.944335938 36 380.198242188 108.967773438 407.26953125 210 c 1
 482.41015625 190 l 1
EndSplineSet
EndChar

StartChar: G
Encoding: 71 71 33
Width: 484
Flags: HW
LayerCount: 2
Fore
SplineSet
354.24609375 348 m 1
 524.74609375 348 l 1
 482.41015625 190 l 2
 440.610351562 34 322.98828125 -18 237.176757812 -18 c 0
 151.365234375 -18 61.6103515625 34 103.41015625 190 c 2
 189.154296875 510 l 2
 230.954101562 666 348.576171875 718 434.387695312 718 c 0
 520.19921875 718 609.954101562 666 568.154296875 510 c 1
 482.294921875 490 l 1
 516.88671875 619.096679688 480.215820312 664 419.91796875 664 c 0
 359.620117188 664 302.34375 632 277.692382812 540 c 2
 175.872070312 160 l 2
 151.220703125 68 191.348632812 36 251.646484375 36 c 0
 311.944335938 36 374.579101562 88 393.872070312 160 c 2
 435.671875 316 l 1
 335.671875 316 l 1
 354.24609375 348 l 1
EndSplineSet
EndChar

StartChar: Q
Encoding: 81 81 34
Width: 484
Flags: HW
LayerCount: 2
Fore
SplineSet
419.91796875 664 m 0
 359.620117188 664 302.34375 632 277.692382812 540 c 2
 175.872070312 160 l 2
 151.220703125 68 191.348632812 36 251.646484375 36 c 0
 311.944335938 36 374.579101562 88 393.872070312 160 c 2
 495.692382812 540 l 2
 520.34375 632 480.215820312 664 419.91796875 664 c 0
434.387695312 718 m 0
 520.19921875 718 609.954101562 666 568.154296875 510 c 2
 482.41015625 190 l 2
 443.749023438 45.712890625 341.436523438 -9.60546875 259.322265625 -17.0986328125 c 1
 238.366210938 -30.2509765625 222.528320312 -44.6787109375 218.556640625 -59.5 c 0
 211.081054688 -87.3984375 229.072265625 -98.109375 273.12890625 -98.109375 c 0
 333.084960938 -98.109375 373.368164062 -77 373.368164062 -77 c 1
 339.147460938 -145 l 1
 339.147460938 -145 301.484375 -157.920898438 253.622070312 -157.920898438 c 0
 197.388671875 -157.920898438 132.791992188 -142.594726562 150.501953125 -76.5 c 0
 157.067382812 -51.998046875 180.41015625 -30.283203125 207.592773438 -12.5263671875 c 1
 124.702148438 1.0888671875 69.212890625 62.375 103.41015625 190 c 2
 189.154296875 510 l 2
 230.954101562 666 348.576171875 718 434.387695312 718 c 0
EndSplineSet
EndChar

StartChar: S
Encoding: 83 83 35
Width: 484
Flags: HW
LayerCount: 2
Fore
SplineSet
194.512695312 530 m 0
 230.954101562 666 348.576171875 718 434.387695312 718 c 0
 520.19921875 718 609.954101562 666 568.154296875 510 c 1
 474.794921875 490 l 1
 509.38671875 619.096679688 476.067382812 664 419.91796875 664 c 0
 358.237304688 664 296.545898438 619.692382812 269.833984375 520 c 0
 246.471679688 432.810546875 283.026367188 386.26171875 341.060546875 371 c 0
 449.739257812 335 513.23046875 305.021484375 477.051757812 170 c 0
 440.610351562 34 322.98828125 -18 237.176757812 -18 c 0
 151.365234375 -18 61.6103515625 34 103.41015625 190 c 1
 196.76953125 210 l 1
 169.698242188 108.967773438 195.497070312 36 251.646484375 36 c 0
 313.327148438 36 375.018554688 80.3076171875 401.73046875 180 c 0
 420.051757812 248.373046875 399.591796875 316.9140625 336.096679688 333 c 0
 228.57421875 367.564453125 160.318359375 402.383789062 194.512695312 530 c 0
EndSplineSet
EndChar

StartChar: A
Encoding: 65 65 36
Width: 498
Flags: HW
LayerCount: 2
Fore
SplineSet
202.606445312 172 m 1
 123 0 l 1
 42.5 0 l 1
 387.564453125 700 l 1
 503.064453125 700 l 1
 455.5 0 l 1
 375 0 l 1
 391.766601562 172 l 1
 202.606445312 172 l 1
214.374023438 203 m 1
 394.463867188 203 l 1
 433.526367188 670 l 1
 214.374023438 203 l 1
EndSplineSet
EndChar

StartChar: V
Encoding: 86 86 37
Width: 498
Flags: HW
LayerCount: 2
Fore
SplineSet
284.359375 20 m 1
 605.064453125 700 l 1
 643.064453125 700 l 1
 313 0 l 1
 202.5 0 l 1
 230.064453125 700 l 1
 310.564453125 700 l 1
 284.359375 20 l 1
EndSplineSet
EndChar

StartChar: W
Encoding: 87 87 38
Width: 820
Flags: HW
LayerCount: 2
Fore
SplineSet
262.038085938 30 m 1
 547.564453125 700 l 1
 639.064453125 700 l 1
 624.038085938 30 l 1
 933.064453125 700 l 1
 965.064453125 700 l 1
 642 0 l 1
 559.5 0 l 1
 569.938476562 671.538085938 l 1
 288 0 l 1
 197.5 0 l 1
 230.064453125 700 l 1
 310.564453125 700 l 1
 262.038085938 30 l 1
EndSplineSet
EndChar

StartChar: L
Encoding: 76 76 39
Width: 438
Flags: HW
LayerCount: 2
Fore
SplineSet
162.426757812 72.5 m 1
 404.926757812 72.5 l 1
 385.5 0 l 1
 62.5 0 l 1
 250.064453125 700 l 1
 330.564453125 700 l 1
 162.426757812 72.5 l 1
EndSplineSet
EndChar

StartChar: D
Encoding: 68 68 40
Width: 484
Flags: HW
LayerCount: 2
Fore
SplineSet
157.469726562 54 m 1
 256.469726562 54 l 2
 316.767578125 54 379.40234375 106 398.6953125 178 c 2
 490.869140625 522 l 2
 515.520507812 614 475.392578125 646 415.094726562 646 c 2
 316.094726562 646 l 1
 157.469726562 54 l 1
62.5 0 m 1
 250.064453125 700 l 1
 429.564453125 700 l 2
 515.375976562 700 605.130859375 648 563.331054688 492 c 2
 487.233398438 208 l 2
 445.43359375 52 327.811523438 0 242 0 c 2
 62.5 0 l 1
EndSplineSet
EndChar

StartChar: I
Encoding: 73 73 41
Width: 198
Flags: HW
LayerCount: 2
Fore
SplineSet
135.5 0 m 1
 62.5 0 l 1
 250.064453125 700 l 1
 323.064453125 700 l 1
 135.5 0 l 1
EndSplineSet
EndChar

StartChar: B
Encoding: 66 66 42
Width: 484
Flags: HW
LayerCount: 2
Fore
SplineSet
160.818359375 66.5 m 1
 244.818359375 66.5 l 2
 325.903320312 66.5 380.53515625 118.892578125 409.5234375 227.078125 c 0
 428.143554688 296.569335938 411.84765625 387 330.696289062 387 c 2
 246.696289062 387 l 1
 160.818359375 66.5 l 1
253.126953125 411 m 1
 312.126953125 411 l 2
 383.215820312 411 426.19921875 438.596679688 443.208984375 502.078125 c 0
 460.3359375 565.994140625 442.893554688 633.5 371.74609375 633.5 c 2
 312.74609375 633.5 l 1
 253.126953125 411 l 1
427.248046875 407.6484375 m 1
 487.196289062 387 521.583984375 336.19921875 496.879882812 244 c 2
 485.08984375 200 l 2
 443.290039062 44 327.811523438 0 242 0 c 2
 62.5 0 l 1
 250.064453125 700 l 1
 389.564453125 700 l 2
 511.219726562 700 554.997070312 635.813476562 526.837890625 530.719726562 c 0
 504.94140625 449 466.717773438 430 427.248046875 407.6484375 c 1
EndSplineSet
EndChar

StartChar: P
Encoding: 80 80 43
Width: 484
Flags: HW
LayerCount: 2
Fore
SplineSet
250.064453125 700 m 1
 429.564453125 700 l 2
 515.375976562 700 606.135742188 651.75 567.350585938 507 c 2
 555.560546875 463 l 2
 520.047851562 330.465820312 436.516601562 300 352.384765625 300 c 2
 223.384765625 300 l 1
 143 0 l 1
 62.5 0 l 1
 250.064453125 700 l 1
232.495117188 334 m 1
 316.495117188 334 l 2
 397.579101562 334 451.767578125 384.734375 477.984375 482.578125 c 0
 496.719726562 552.500976562 477.897460938 633.5 396.74609375 633.5 c 2
 312.74609375 633.5 l 1
 232.495117188 334 l 1
EndSplineSet
EndChar

StartChar: R
Encoding: 82 82 44
Width: 484
Flags: HW
LayerCount: 2
Fore
SplineSet
237.854492188 354 m 1
 336.854492188 354 l 2
 407.942382812 354 459.354492188 413.05078125 475.170898438 472.078125 c 0
 497.903320312 556.916992188 481.486328125 628.25 410.338867188 628.25 c 2
 311.338867188 628.25 l 1
 237.854492188 354 l 1
250.064453125 700 m 1
 429.564453125 700 l 2
 515.375976562 700 608.094726562 659.060546875 567.350585938 507 c 2
 563.598632812 493 l 2
 535.271484375 387.28125 454.130859375 334.505859375 388.250976562 334.505859375 c 1
 431.5 0 l 1
 341.5 0 l 1
 310.270507812 320 l 1
 228.744140625 320 l 1
 143 0 l 1
 62.5 0 l 1
 250.064453125 700 l 1
EndSplineSet
EndChar

StartChar: T
Encoding: 84 84 45
Width: 468
Flags: HW
LayerCount: 2
Fore
SplineSet
364.637695312 627.5 m 1
 220.637695312 627.5 l 1
 240.064453125 700 l 1
 603.064453125 700 l 1
 583.637695312 627.5 l 1
 437.637695312 627.5 l 1
 269.5 0 l 1
 196.5 0 l 1
 364.637695312 627.5 l 1
EndSplineSet
EndChar

StartChar: J
Encoding: 74 74 46
Width: 293
Flags: HW
LayerCount: 2
Fore
SplineSet
190.192382812 150 m 2
 337.564453125 700 l 1
 418.064453125 700 l 1
 284.08984375 200 l 2
 241.407226562 40.7080078125 157.958984375 -20 85.640625 -20 c 0
 57.640625 -20 44.9052734375 -13.9169921875 32.8564453125 -8 c 1
 43.8427734375 33 l 1
 43.8427734375 33 60.046875 26.599609375 81.55078125 26.599609375 c 0
 142.51953125 26.599609375 173.307617188 86.9853515625 190.192382812 150 c 2
EndSplineSet
EndChar

StartChar: E
Encoding: 69 69 47
Width: 438
Flags: HW
LayerCount: 2
Fore
SplineSet
246.428710938 386 m 1
 489.428710938 386 l 1
 477.102539062 340 l 1
 234.102539062 340 l 1
 162.225585938 71.75 l 1
 427.225585938 71.75 l 1
 408 0 l 1
 62.5 0 l 1
 250.064453125 700 l 1
 595.564453125 700 l 1
 576.137695312 627.5 l 1
 311.137695312 627.5 l 1
 246.428710938 386 l 1
EndSplineSet
EndChar

StartChar: F
Encoding: 70 70 48
Width: 438
Flags: HW
LayerCount: 2
Fore
SplineSet
311.137695312 627.5 m 1
 246.428710938 386 l 1
 489.428710938 386 l 1
 477.102539062 340 l 1
 234.102539062 340 l 1
 143 0 l 1
 62.5 0 l 1
 250.064453125 700 l 1
 595.564453125 700 l 1
 576.137695312 627.5 l 1
 311.137695312 627.5 l 1
EndSplineSet
EndChar

StartChar: Y
Encoding: 89 89 49
Width: 498
Flags: HW
LayerCount: 2
Fore
SplineSet
346.884765625 300 m 1
 595.064453125 700 l 1
 643.064453125 700 l 1
 359.291015625 253 l 1
 291.5 0 l 1
 219 0 l 1
 286.791015625 253 l 1
 230.064453125 700 l 1
 310.564453125 700 l 1
 346.884765625 300 l 1
EndSplineSet
EndChar

StartChar: K
Encoding: 75 75 50
Width: 482
Flags: HW
LayerCount: 2
Fore
SplineSet
143 0 m 1
 62.5 0 l 1
 250.064453125 700 l 1
 330.564453125 700 l 1
 228.983398438 320.895507812 l 1
 579.064453125 700 l 1
 627.064453125 700 l 1
 337.137695312 369.509765625 l 1
 429.5 0 l 1
 334.5 0 l 1
 259.971679688 313.387695312 l 1
 215.986328125 272.387695312 l 1
 143 0 l 1
EndSplineSet
EndChar

StartChar: X
Encoding: 88 88 51
Width: 514
Flags: HW
LayerCount: 2
Fore
SplineSet
471.5 0 m 1
 388 0 l 1
 327.477539062 294.75 l 1
 90.5 0 l 1
 42.5 0 l 1
 316.2890625 331.364257812 l 1
 230.064453125 700 l 1
 313.564453125 700 l 1
 378.880859375 400.75 l 1
 620.064453125 700 l 1
 659.064453125 700 l 1
 390.0703125 364.135742188 l 1
 471.5 0 l 1
EndSplineSet
EndChar

StartChar: Z
Encoding: 90 90 52
Width: 478
Flags: HW
LayerCount: 2
Fore
SplineSet
221.173828125 629.5 m 1
 240.064453125 700 l 1
 613.064453125 700 l 1
 593.637695312 627.5 l 1
 115.340820312 70.5 l 1
 444.390625 70.5 l 1
 425.5 0 l 1
 52.5 0 l 1
 74.0703125 80.5 l 1
 550.083984375 629.5 l 1
 221.173828125 629.5 l 1
EndSplineSet
EndChar

StartChar: period
Encoding: 46 46 53
Width: 198
Flags: HW
LayerCount: 2
Fore
SplineSet
139.25 0 m 1
 58.75 0 l 1
 81.7939453125 86 l 1
 162.293945312 86 l 1
 139.25 0 l 1
EndSplineSet
EndChar

StartChar: comma
Encoding: 44 44 54
Width: 198
Flags: HW
LayerCount: 2
Fore
SplineSet
63.0712890625 -100.5 m 1
 42.224609375 -85 l 1
 106.974609375 0 l 1
 58.75 0 l 1
 81.7939453125 86 l 1
 162.293945312 86 l 1
 139.25 0 l 1
 63.0712890625 -100.5 l 1
EndSplineSet
EndChar

StartChar: question
Encoding: 63 63 55
Width: 484
Flags: HW
LayerCount: 2
Fore
SplineSet
269.336914062 0 m 1
 188.836914062 0 l 1
 211.880859375 86 l 1
 292.380859375 86 l 1
 269.336914062 0 l 1
342.439453125 297.969726562 m 1
 312.4375 186 l 1
 240.9375 186 l 1
 276.842773438 320 l 1
 350.647460938 320 441.705078125 375.834960938 474.70703125 499 c 0
 505.12890625 612.538085938 480.935546875 663 419.650390625 663 c 0
 358.364257812 663 307.926757812 615.516601562 271.34765625 479 c 1
 196.20703125 499 l 1
 238.006835938 655 346.1328125 707 431.440429688 707 c 0
 516.747070312 707 597.006835938 655 555.20703125 499 c 0
 523.05078125 378.994140625 428.016601562 316 342.439453125 297.969726562 c 1
EndSplineSet
EndChar

StartChar: colon
Encoding: 58 58 56
Width: 198
Flags: HW
LayerCount: 2
Fore
SplineSet
246.362304688 399.75 m 1
 165.862304688 399.75 l 1
 188.90625 485.75 l 1
 269.40625 485.75 l 1
 246.362304688 399.75 l 1
168.456054688 109 m 1
 87.9560546875 109 l 1
 111 195 l 1
 191.5 195 l 1
 168.456054688 109 l 1
EndSplineSet
EndChar

StartChar: hyphen
Encoding: 45 45 57
Width: 347
Flags: HW
LayerCount: 2
Fore
SplineSet
116.499023438 285.5 m 1
 383.499023438 285.5 l 1
 366.619140625 222.5 l 1
 99.619140625 222.5 l 1
 116.499023438 285.5 l 1
EndSplineSet
EndChar
